<svg cache-id="b83c29aea4144a77bfcf98be6186c0dd" id="el2uOM6W0Em1" xmlns="http://www.w3.org/2000/svg" xmlns:xlink="http://www.w3.org/1999/xlink" viewBox="0 0 80 40" shape-rendering="geometricPrecision" text-rendering="geometricPrecision"><style><![CDATA[#el2uOM6W0Em3_to {animation: el2uOM6W0Em3_to__to 3000ms linear 1 normal forwards}@keyframes el2uOM6W0Em3_to__to { 0% {transform: translate(10px,20px)} 100% {transform: translate(-20px,20px)}} #el2uOM6W0Em4_to {animation: el2uOM6W0Em4_to__to 3000ms linear 1 normal forwards}@keyframes el2uOM6W0Em4_to__to { 0% {transform: translate(10px,20px)} 100% {transform: translate(0px,20px)}} #el2uOM6W0Em5_to {animation: el2uOM6W0Em5_to__to 3000ms linear 1 normal forwards}@keyframes el2uOM6W0Em5_to__to { 0% {transform: translate(10px,20px)} 100% {transform: translate(40px,20px)}} #el2uOM6W0Em6_to {animation: el2uOM6W0Em6_to__to 3000ms linear 1 normal forwards}@keyframes el2uOM6W0Em6_to__to { 0% {transform: translate(10px,20px)} 100% {transform: translate(20px,20px)}} #el2uOM6W0Em7_to {animation: el2uOM6W0Em7_to__to 3000ms linear 1 normal forwards}@keyframes el2uOM6W0Em7_to__to { 0% {transform: translate(39.803052px,10.500012px)} 100% {transform: translate(9.803047px,10.000003px)}} #el2uOM6W0Em9_to {animation: el2uOM6W0Em9_to__to 3000ms linear 1 normal forwards}@keyframes el2uOM6W0Em9_to__to { 0% {transform: translate(40.000005px,29.50001px)} 100% {transform: translate(10px,29px)}} #el2uOM6W0Em11_to {animation: el2uOM6W0Em11_to__to 3000ms linear 1 normal forwards}@keyframes el2uOM6W0Em11_to__to { 0% {transform: translate(37.5px,11px)} 100% {transform: translate(27px,11px)}} #el2uOM6W0Em11 {animation: el2uOM6W0Em11_c_o 3000ms linear 1 normal forwards}@keyframes el2uOM6W0Em11_c_o { 0% {opacity: 0} 66.666667% {opacity: 0} 100% {opacity: 1}} #el2uOM6W0Em13_to {animation: el2uOM6W0Em13_to__to 3000ms linear 1 normal forwards}@keyframes el2uOM6W0Em13_to__to { 0% {transform: translate(46.5px,11px)} 100% {transform: translate(36px,11px)}} #el2uOM6W0Em13 {animation: el2uOM6W0Em13_c_o 3000ms linear 1 normal forwards}@keyframes el2uOM6W0Em13_c_o { 0% {opacity: 0} 66.666667% {opacity: 0} 100% {opacity: 1}} #el2uOM6W0Em15_to {animation: el2uOM6W0Em15_to__to 3000ms linear 1 normal forwards}@keyframes el2uOM6W0Em15_to__to { 0% {transform: translate(33.303054px,11px)} 100% {transform: translate(43px,11px)}} #el2uOM6W0Em15 {animation: el2uOM6W0Em15_c_o 3000ms linear 1 normal forwards}@keyframes el2uOM6W0Em15_c_o { 0% {opacity: 0} 66.666667% {opacity: 0} 100% {opacity: 1}} #el2uOM6W0Em17_to {animation: el2uOM6W0Em17_to__to 3000ms linear 1 normal forwards}@keyframes el2uOM6W0Em17_to__to { 0% {transform: translate(42.303054px,11px)} 100% {transform: translate(52px,11px)}} #el2uOM6W0Em17 {animation: el2uOM6W0Em17_c_o 3000ms linear 1 normal forwards}@keyframes el2uOM6W0Em17_c_o { 0% {opacity: 0} 66.666667% {opacity: 0} 100% {opacity: 1}} #el2uOM6W0Em20_to {animation: el2uOM6W0Em20_to__to 3000ms linear 1 normal forwards}@keyframes el2uOM6W0Em20_to__to { 0% {transform: translate(41px,28.5px)} 100% {transform: translate(30.5px,28.5px)}} #el2uOM6W0Em20 {animation: el2uOM6W0Em20_c_o 3000ms linear 1 normal forwards}@keyframes el2uOM6W0Em20_c_o { 0% {opacity: 0} 66.666667% {opacity: 0} 100% {opacity: 1}} #el2uOM6W0Em23_to {animation: el2uOM6W0Em23_to__to 3000ms linear 1 normal forwards}@keyframes el2uOM6W0Em23_to__to { 0% {transform: translate(39.803054px,11px)} 100% {transform: translate(69.5px,11.5px)}} #el2uOM6W0Em23 {animation: el2uOM6W0Em23_c_o 3000ms linear 1 normal forwards}@keyframes el2uOM6W0Em23_c_o { 0% {opacity: 0} 66.666667% {opacity: 0} 100% {opacity: 1}}]]></style><g id="el2uOM6W0Em2" transform="matrix(1 0 0 1 30 0)"><g id="el2uOM6W0Em3_to" transform="translate(10,20)"><rect id="el2uOM6W0Em3" width="20" height="40" rx="10" ry="10" transform="translate(-10,-20)" fill="rgb(0,0,0)" stroke="none" stroke-width="1"/></g><g id="el2uOM6W0Em4_to" transform="translate(10,20)"><rect id="el2uOM6W0Em4" width="20" height="40" rx="10" ry="10" transform="translate(-10,-20)" fill="rgb(0,0,0)" stroke="none" stroke-width="1"/></g><g id="el2uOM6W0Em5_to" transform="translate(10,20)"><rect id="el2uOM6W0Em5" width="20" height="40" rx="10" ry="10" transform="translate(-10,-20)" fill="rgb(0,0,0)" stroke="none" stroke-width="1"/></g><g id="el2uOM6W0Em6_to" transform="translate(10,20)"><rect id="el2uOM6W0Em6" width="20" height="40" rx="10" ry="10" transform="translate(-10,-20)" fill="rgb(0,0,0)" stroke="none" stroke-width="1"/></g></g><g id="el2uOM6W0Em7_to" transform="translate(39.803052,10.500012)"><g id="el2uOM6W0Em7" transform="translate(-9.803047,-10.000003)"><path id="el2uOM6W0Em8" d="M18.6061,12.6333C17.9791,14.6825,16.6415,16.4407,14.8339,17.5916C13.0264,18.7426,10.8674,19.2109,8.74539,18.9121C6.62338,18.6134,4.6776,17.5673,3.25802,15.962C1.83845,14.3567,1.03824,12.2976,1.00133,10.155C0.96443,8.01239,1.69325,5.92692,3.0567,4.27369C4.42015,2.62047,6.32875,1.508,8.43921,1.13637C10.5497,0.764741,12.7235,1.15835,14.5696,2.24639C16.4158,3.33444,17.8131,5.04551,18.5103,7.07185L14.2552,8.53593C13.9066,7.52276,13.2079,6.66722,12.2848,6.1232C11.3617,5.57917,10.2748,5.38237,9.21961,5.56818C8.16438,5.754,7.21008,6.31024,6.52835,7.13685C5.84662,7.96346,5.48221,9.00619,5.50067,10.0775C5.51912,11.1488,5.91922,12.1784,6.62901,12.981C7.3388,13.7837,8.31169,14.3067,9.37269,14.4561C10.4337,14.6054,11.5132,14.3713,12.417,13.7958C13.3208,13.2203,13.9896,12.3412,14.3031,11.3167L18.6061,12.6333Z" fill="rgb(204,153,201)" stroke="none" stroke-width="1"/></g></g><g id="el2uOM6W0Em9_to" transform="translate(40.000005,29.50001)"><g id="el2uOM6W0Em9" transform="translate(-10,-29)"><path id="el2uOM6W0Em10" d="M19,29C19,33.9706,14.9706,38,10,38C5.02944,38,1,33.9706,1,29C1,24.0294,5.02944,20,10,20C14.9706,20,19,24.0294,19,29ZM5.5,29C5.5,31.4853,7.51472,33.5,10,33.5C12.4853,33.5,14.5,31.4853,14.5,29C14.5,26.5147,12.4853,24.5,10,24.5C7.51472,24.5,5.5,26.5147,5.5,29Z" fill="rgb(254,177,68)" stroke="none" stroke-width="1"/></g></g><g id="el2uOM6W0Em11_to" transform="translate(37.5,11)"><g id="el2uOM6W0Em11" transform="translate(-27,-11)" opacity="0"><path id="el2uOM6W0Em12" d="M33,11C33,14.3137,30.3137,17,27,17C23.6863,17,21,14.3137,21,11C21,7.68629,23.6863,5,27,5C30.3137,5,33,7.68629,33,11ZM24.6,11C24.6,12.3255,25.6745,13.4,27,13.4C28.3255,13.4,29.4,12.3255,29.4,11C29.4,9.67452,28.3255,8.6,27,8.6C25.6745,8.6,24.6,9.67452,24.6,11Z" fill="rgb(158,193,207)" stroke="none" stroke-width="1"/></g></g><g id="el2uOM6W0Em13_to" transform="translate(46.5,11)"><g id="el2uOM6W0Em13" transform="translate(-36,-11)" opacity="0"><rect id="el2uOM6W0Em14" width="4" height="12" rx="2" ry="2" transform="matrix(1 0 0 1 34 5)" fill="rgb(158,193,207)" stroke="none" stroke-width="1"/></g></g><g id="el2uOM6W0Em15_to" transform="translate(33.303054,11)"><g id="el2uOM6W0Em15" transform="translate(-43,-11)" opacity="0"><rect id="el2uOM6W0Em16" width="4" height="12" rx="2" ry="2" transform="matrix(1 0 0 1 41 5)" fill="rgb(158,224,158)" stroke="none" stroke-width="1"/></g></g><g id="el2uOM6W0Em17_to" transform="translate(42.303054,11)"><g id="el2uOM6W0Em17" transform="translate(-52,-11)" opacity="0"><path id="el2uOM6W0Em18" d="M55,6.5C55,5.67157,55.6716,5,56.5,5C57.3284,5,58,5.67157,58,6.5L58,15.5C58,16.3284,57.3284,17,56.5,17C55.6716,17,55,16.3284,55,15.5L55,6.5Z" fill="rgb(158,224,158)" stroke="none" stroke-width="1"/><path id="el2uOM6W0Em19" d="M58,11C58,14.3137,55.3137,17,52,17C48.6863,17,46,14.3137,46,11C46,7.68629,48.6863,5,52,5C55.3137,5,58,7.68629,58,11ZM49.6,11C49.6,12.3255,50.6745,13.4,52,13.4C53.3255,13.4,54.4,12.3255,54.4,11C54.4,9.67452,53.3255,8.6,52,8.6C50.6745,8.6,49.6,9.67452,49.6,11Z" fill="rgb(158,224,158)" stroke="none" stroke-width="1"/></g></g><g id="el2uOM6W0Em20_to" transform="translate(41,28.5)"><g id="el2uOM6W0Em20" transform="translate(-30.5,-28.5)" opacity="0"><path id="el2uOM6W0Em21" d="M24,25C24,23.8954,24.8954,23,26,23C27.1046,23,28,23.8954,28,25L28,33C28,34.1046,27.1046,35,26,35C24.8954,35,24,34.1046,24,33L24,25Z" fill="rgb(255,102,99)" stroke="none" stroke-width="1"/><path id="el2uOM6W0Em22" d="M37,28C37,31.3137,34.3137,34,31,34C27.6863,34,25,31.3137,25,28C25,24.6863,27.6863,22,31,22C34.3137,22,37,24.6863,37,28ZM28.6,28C28.6,29.3255,29.6745,30.4,31,30.4C32.3255,30.4,33.4,29.3255,33.4,28C33.4,26.6745,32.3255,25.6,31,25.6C29.6745,25.6,28.6,26.6745,28.6,28Z" fill="rgb(255,102,99)" stroke="none" stroke-width="1"/></g></g><g id="el2uOM6W0Em23_to" transform="translate(39.803054,11)"><g id="el2uOM6W0Em23" transform="translate(-69.5,-11.5)" opacity="0"><path id="el2uOM6W0Em24" d="M63,7C63,5.89543,63.8954,5,65,5C66.1046,5,67,5.89543,67,7L67,15C67,16.1046,66.1046,17,65,17C63.8954,17,63,16.1046,63,15L63,7Z" fill="rgb(253,253,151)" stroke="none" stroke-width="1"/><path id="el2uOM6W0Em25" d="M76,12C76,15.3137,73.3137,18,70,18C66.6863,18,64,15.3137,64,12C64,8.68629,66.6863,6,70,6C73.3137,6,76,8.68629,76,12ZM67.6,12C67.6,13.3255,68.6745,14.4,70,14.4C71.3255,14.4,72.4,13.3255,72.4,12C72.4,10.6745,71.3255,9.6,70,9.6C68.6745,9.6,67.6,10.6745,67.6,12Z" fill="rgb(253,253,151)" stroke="none" stroke-width="1"/></g></g></svg>